HIERARCHY
ROOT mixamorig:Hips
{
	OFFSET 0.000000 201.639420 0.000000
	CHANNELS 6 Xposition Yposition Zposition Xrotation Yrotation Zrotation
	JOINT mixamorig:Spine
	{
		OFFSET 0.006200 19.524994 -2.481800
		CHANNELS 3 Xrotation Yrotation Zrotation
		JOINT mixamorig:Spine1
		{
			OFFSET -0.000900 22.835007 -2.825400
			CHANNELS 3 Xrotation Yrotation Zrotation
			JOINT mixamorig:Spine2
			{
				OFFSET -0.020600 26.552490 -3.193300
				CHANNELS 3 Xrotation Yrotation Zrotation
				JOINT mixamorig:Neck
				{
					OFFSET -0.060000 30.701813 1.352200
					CHANNELS 3 Xrotation Yrotation Zrotation
					JOINT mixamorig:Head
					{
						OFFSET -0.087200 22.547607 3.670900
						CHANNELS 3 Xrotation Yrotation Zrotation
						JOINT mixamorig:HeadTop_End
						{
							OFFSET -0.830600 40.355194 7.893500
							CHANNELS 3 Xrotation Yrotation Zrotation
							End Site
							{
								OFFSET 0.000000 30.592346 0.000000
							}
						}
						JOINT mixamorig:RightEye
						{
							OFFSET -6.302100 18.118591 16.197100
							CHANNELS 3 Xrotation Yrotation Zrotation
							End Site
							{
								OFFSET 0.000000 30.592346 0.000000
							}
						}
						JOINT mixamorig:LeftEye
						{
							OFFSET 6.741500 18.382690 16.401899
							CHANNELS 3 Xrotation Yrotation Zrotation
							End Site
							{
								OFFSET 0.000000 30.592346 0.000000
							}
						}
					}
				}
				JOINT mixamorig:LeftShoulder
				{
					OFFSET 11.924900 18.230499 1.425400
					CHANNELS 3 Xrotation Yrotation Zrotation
					JOINT mixamorig:LeftArm
					{
						OFFSET 25.435989 -0.697632 -5.229300
						CHANNELS 3 Xrotation Yrotation Zrotation
						JOINT mixamorig:LeftForeArm
						{
							OFFSET 54.684776 0.000000 0.000000
							CHANNELS 3 Xrotation Yrotation Zrotation
							JOINT mixamorig:LeftHand
							{
								OFFSET 55.098175 0.000000 0.000000
								CHANNELS 3 Xrotation Yrotation Zrotation
								JOINT mixamorig:LeftHandMiddle1
								{
									OFFSET 23.369751 0.000000 0.000000
									CHANNELS 3 Xrotation Yrotation Zrotation
									JOINT mixamorig:LeftHandMiddle2
									{
										OFFSET 6.378677 0.000000 0.000000
										CHANNELS 3 Xrotation Yrotation Zrotation
										JOINT mixamorig:LeftHandMiddle3
										{
											OFFSET 6.148331 0.000000 0.000000
											CHANNELS 3 Xrotation Yrotation Zrotation
											JOINT mixamorig:LeftHandMiddle4
											{
												OFFSET 6.582504 0.000000 0.000000
												CHANNELS 3 Xrotation Yrotation Zrotation
												End Site
												{
													OFFSET -1.168900 6.395691 1.028606
												}
											}
										}
									}
								}
								JOINT mixamorig:LeftHandThumb1
								{
									OFFSET 7.235672 -3.848206 5.434273
									CHANNELS 3 Xrotation Yrotation Zrotation
									JOINT mixamorig:LeftHandThumb2
									{
										OFFSET 6.568451 -3.792297 3.792300
										CHANNELS 3 Xrotation Yrotation Zrotation
										JOINT mixamorig:LeftHandThumb3
										{
											OFFSET 6.063080 -3.500519 3.500518
											CHANNELS 3 Xrotation Yrotation Zrotation
											JOINT mixamorig:LeftHandThumb4
											{
												OFFSET 4.793182 -2.767334 2.767349
												CHANNELS 3 Xrotation Yrotation Zrotation
												End Site
												{
													OFFSET 0.101639 6.054260 1.275483
												}
											}
										}
									}
								}
								JOINT mixamorig:LeftHandIndex1
								{
									OFFSET 23.101074 -0.309540 4.992809
									CHANNELS 3 Xrotation Yrotation Zrotation
									JOINT mixamorig:LeftHandIndex2
									{
										OFFSET 6.226883 0.000000 0.000000
										CHANNELS 3 Xrotation Yrotation Zrotation
										JOINT mixamorig:LeftHandIndex3
										{
											OFFSET 6.094330 0.000000 0.000000
											CHANNELS 3 Xrotation Yrotation Zrotation
											JOINT mixamorig:LeftHandIndex4
											{
												OFFSET 5.482605 0.000000 0.000000
												CHANNELS 3 Xrotation Yrotation Zrotation
												End Site
												{
													OFFSET -1.427902 5.233032 0.797164
												}
											}
										}
									}
								}
								JOINT mixamorig:LeftHandRing1
								{
									OFFSET 22.299240 0.021149 -3.964172
									CHANNELS 3 Xrotation Yrotation Zrotation
									JOINT mixamorig:LeftHandRing2
									{
										OFFSET 6.321869 0.000000 0.000000
										CHANNELS 3 Xrotation Yrotation Zrotation
										JOINT mixamorig:LeftHandRing3
										{
											OFFSET 5.899796 0.000000 0.000000
											CHANNELS 3 Xrotation Yrotation Zrotation
											JOINT mixamorig:LeftHandRing4
											{
												OFFSET 6.517899 0.000000 0.000000
												CHANNELS 3 Xrotation Yrotation Zrotation
												End Site
												{
													OFFSET -1.637299 6.232208 0.980890
												}
											}
										}
									}
								}
								JOINT mixamorig:LeftHandPinky1
								{
									OFFSET 20.463791 -0.302338 -8.562233
									CHANNELS 3 Xrotation Yrotation Zrotation
									JOINT mixamorig:LeftHandPinky2
									{
										OFFSET 6.908646 0.000000 0.000000
										CHANNELS 3 Xrotation Yrotation Zrotation
										JOINT mixamorig:LeftHandPinky3
										{
											OFFSET 4.622849 0.000000 0.000000
											CHANNELS 3 Xrotation Yrotation Zrotation
											JOINT mixamorig:LeftHandPinky4
											{
												OFFSET 5.216080 0.000000 0.000000
												CHANNELS 3 Xrotation Yrotation Zrotation
												End Site
												{
													OFFSET -0.606308 5.116241 0.814926
												}
											}
										}
									}
								}
							}
						}
					}
				}
				JOINT mixamorig:RightShoulder
				{
					OFFSET -12.001300 18.284088 1.348900
					CHANNELS 3 Xrotation Yrotation Zrotation
					JOINT mixamorig:RightArm
					{
						OFFSET -25.308500 -0.751312 -5.164599
						CHANNELS 3 Xrotation Yrotation Zrotation
						JOINT mixamorig:RightForeArm
						{
							OFFSET -54.684429 0.000000 0.000000
							CHANNELS 3 Xrotation Yrotation Zrotation
							JOINT mixamorig:RightHand
							{
								OFFSET -55.150291 0.000000 0.000000
								CHANNELS 3 Xrotation Yrotation Zrotation
								JOINT mixamorig:RightHandMiddle1
								{
									OFFSET -23.317566 0.000000 0.000000
									CHANNELS 3 Xrotation Yrotation Zrotation
									JOINT mixamorig:RightHandMiddle2
									{
										OFFSET -6.378403 0.000000 0.000000
										CHANNELS 3 Xrotation Yrotation Zrotation
										JOINT mixamorig:RightHandMiddle3
										{
											OFFSET -6.148193 0.000000 0.000000
											CHANNELS 3 Xrotation Yrotation Zrotation
											JOINT mixamorig:RightHandMiddle4
											{
												OFFSET -6.583389 0.000000 0.000000
												CHANNELS 3 Xrotation Yrotation Zrotation
												End Site
												{
													OFFSET 1.171692 6.395905 1.029786
												}
											}
										}
									}
								}
								JOINT mixamorig:RightHandThumb1
								{
									OFFSET -7.190521 -3.860474 5.435846
									CHANNELS 3 Xrotation Yrotation Zrotation
									JOINT mixamorig:RightHandThumb2
									{
										OFFSET -6.567429 -3.791718 3.791708
										CHANNELS 3 Xrotation Yrotation Zrotation
										JOINT mixamorig:RightHandThumb3
										{
											OFFSET -6.062469 -3.500153 3.500166
											CHANNELS 3 Xrotation Yrotation Zrotation
											JOINT mixamorig:RightHandThumb4
											{
												OFFSET -4.792618 -2.767029 2.767022
												CHANNELS 3 Xrotation Yrotation Zrotation
												End Site
												{
													OFFSET -0.100327 6.053253 1.276754
												}
											}
										}
									}
								}
								JOINT mixamorig:RightHandIndex1
								{
									OFFSET -23.048981 -0.310791 4.992554
									CHANNELS 3 Xrotation Yrotation Zrotation
									JOINT mixamorig:RightHandIndex2
									{
										OFFSET -6.227539 0.000000 0.000000
										CHANNELS 3 Xrotation Yrotation Zrotation
										JOINT mixamorig:RightHandIndex3
										{
											OFFSET -6.095047 0.000000 0.000000
											CHANNELS 3 Xrotation Yrotation Zrotation
											JOINT mixamorig:RightHandIndex4
											{
												OFFSET -5.484772 0.000000 0.000000
												CHANNELS 3 Xrotation Yrotation Zrotation
												End Site
												{
													OFFSET 1.420593 5.237305 0.797056
												}
											}
										}
									}
								}
								JOINT mixamorig:RightHandRing1
								{
									OFFSET -22.246323 0.020569 -3.963762
									CHANNELS 3 Xrotation Yrotation Zrotation
									JOINT mixamorig:RightHandRing2
									{
										OFFSET -6.322128 0.000000 0.000000
										CHANNELS 3 Xrotation Yrotation Zrotation
										JOINT mixamorig:RightHandRing3
										{
											OFFSET -5.900024 0.000000 0.000000
											CHANNELS 3 Xrotation Yrotation Zrotation
											JOINT mixamorig:RightHandRing4
											{
												OFFSET -6.518356 0.000000 0.000000
												CHANNELS 3 Xrotation Yrotation Zrotation
												End Site
												{
													OFFSET 1.636398 6.232697 0.982186
												}
											}
										}
									}
								}
								JOINT mixamorig:RightHandPinky1
								{
									OFFSET -20.411011 -0.303314 -8.561701
									CHANNELS 3 Xrotation Yrotation Zrotation
									JOINT mixamorig:RightHandPinky2
									{
										OFFSET -6.907349 0.000000 0.000000
										CHANNELS 3 Xrotation Yrotation Zrotation
										JOINT mixamorig:RightHandPinky3
										{
											OFFSET -4.623840 0.000000 0.000000
											CHANNELS 3 Xrotation Yrotation Zrotation
											JOINT mixamorig:RightHandPinky4
											{
												OFFSET -5.218353 0.000000 0.000000
												CHANNELS 3 Xrotation Yrotation Zrotation
												End Site
												{
													OFFSET 0.602097 5.118835 0.816273
												}
											}
										}
									}
								}
							}
						}
					}
				}
			}
		}
	}
	JOINT mixamorig:LeftUpLeg
	{
		OFFSET 18.168400 -13.561905 -0.039000
		CHANNELS 3 Xrotation Yrotation Zrotation
		JOINT mixamorig:LeftLeg
		{
			OFFSET 0.577358 -80.825211 -3.695000
			CHANNELS 3 Xrotation Yrotation Zrotation
			JOINT mixamorig:LeftFoot
			{
				OFFSET -0.577356 -83.370262 -6.520700
				CHANNELS 3 Xrotation Yrotation Zrotation
				JOINT mixamorig:LeftToeBase
				{
					OFFSET 0.750401 -20.798306 25.135401
					CHANNELS 3 Xrotation Yrotation Zrotation
					JOINT mixamorig:LeftToe_End
					{
						OFFSET -0.000500 0.001200 19.917799
						CHANNELS 3 Xrotation Yrotation Zrotation
						End Site
						{
							OFFSET 0.000000 19.917805 0.000000
						}
					}
				}
			}
		}
	}
	JOINT mixamorig:RightUpLeg
	{
		OFFSET -18.162500 -13.585098 -0.041000
		CHANNELS 3 Xrotation Yrotation Zrotation
		JOINT mixamorig:RightLeg
		{
			OFFSET -0.595024 -80.945297 -3.631900
			CHANNELS 3 Xrotation Yrotation Zrotation
			JOINT mixamorig:RightFoot
			{
				OFFSET 0.595024 -83.218193 -6.561200
				CHANNELS 3 Xrotation Yrotation Zrotation
				JOINT mixamorig:RightToeBase
				{
					OFFSET -0.753601 -20.807106 25.115000
					CHANNELS 3 Xrotation Yrotation Zrotation
					JOINT mixamorig:RightToe_End
					{
						OFFSET 0.000299 0.001700 19.918200
						CHANNELS 3 Xrotation Yrotation Zrotation
						End Site
						{
							OFFSET 0.000000 19.918203 0.000000
						}
					}
				}
			}
		}
	}
}
MOTION
Frames: 4
Frame Time: 0.033333
-0.117610 182.114410 -71.493126 1.270367 -2.984199 4.397193 8.482996 -1.048500 -1.562080 4.203888 -0.156110 0.993863 4.205962 -0.139446 0.985928 0.611904 1.006876 -1.028379 -13.588233 5.792782 -4.497285 0.000000 0.000000 -0.000000 0.000000 0.000000 -0.000000 0.000000 0.000000 -0.000000 1.712581 -5.893836 1.022983 -31.889392 -56.967323 -67.007366 -0.000555 -98.036840 -0.000528 0.751604 -11.636876 -7.828814 0.470970 2.507188 -21.274315 0.162437 1.489742 -12.444940 0.139912 1.383807 -11.546999 0.000002 0.000001 -0.000004 0.878070 12.629896 -5.171246 3.939030 7.948699 0.746813 1.374072 26.415415 4.686970 -0.000001 0.000002 0.000001 0.385991 2.277158 -19.238800 0.117082 1.266910 -10.559473 0.136987 1.369366 -11.424825 -0.000001 0.000001 0.000002 0.830037 3.282465 -28.375164 0.193225 1.622875 -13.578073 0.143142 1.399497 -11.679821 -0.000001 0.000001 -0.000001 4.487147 7.632820 -41.718970 0.097629 -2.855468 -10.496719 0.130743 1.338115 -11.160507 0.000000 0.000001 -0.000001 0.656514 -9.141072 -9.148826 16.196460 26.144134 27.970861 0.000013 29.757454 -0.000011 36.378151 13.873375 16.665757 2.249820 -5.124622 47.382211 1.647660 -4.498861 40.212961 0.552321 -2.720442 22.948543 0.000004 -0.000000 -0.000001 2.389871 -18.008851 6.898359 4.637203 -8.634130 -0.225401 0.125394 -16.757466 -3.767204 0.000000 0.000002 -0.000000 2.416920 -5.272883 49.226287 1.516304 -4.339180 38.508296 0.377465 -2.263950 18.929297 0.000001 -0.000001 0.000000 3.138250 -5.814790 56.682289 1.790769 -4.662323 42.004789 0.570459 -2.762842 23.327823 0.000003 -0.000001 -0.000000 5.633070 -6.823222 79.063087 1.529124 -4.355208 38.677531 0.383128 -2.280382 19.072137 -0.000002 -0.000000 0.000004 -21.779055 20.830832 -13.884997 42.520687 -3.707482 -0.355439 -18.759861 -3.724125 17.701682 -0.265429 -0.000004 0.000006 0.000000 0.000000 0.000000 -19.269065 -1.720021 -8.626339 72.848052 -9.000453 1.035312 23.128112 2.286289 14.376916 -6.087035 -0.226738 2.507820 -0.000001 -0.000000 0.000001 
2.097528 183.534088 -72.646484 2.697294 -13.183032 3.713686 7.109170 -0.917780 -1.629765 3.715571 -0.137016 1.036475 3.717352 -0.122251 1.029834 1.098460 2.692935 -1.427859 -12.384366 13.958462 -4.492326 -0.000000 0.000000 0.000000 -0.000000 0.000000 0.000000 -0.000000 0.000000 0.000000 1.254495 -4.699317 0.615217 -31.013095 -55.625651 -69.659679 -0.000737 -98.193053 -0.000710 1.641741 -9.569711 -7.776530 0.479056 2.527895 -21.458790 0.171397 1.529752 -12.784970 0.145037 1.408565 -11.756527 0.000001 0.000001 -0.000001 0.878081 12.629902 -5.171245 3.939036 7.948698 0.746811 1.374072 26.415422 4.686971 0.000004 -0.000000 0.000000 0.385307 2.275221 -19.221718 0.125826 1.312841 -10.947121 0.141184 1.390023 -11.599578 -0.000001 -0.000001 -0.000002 0.855007 3.328202 -28.808225 0.203967 1.666747 -13.952660 0.148587 1.425564 -11.900537 0.000000 -0.000001 0.000002 4.591883 7.664709 -42.505821 0.105452 -2.814038 -10.845634 0.135200 1.360564 -11.350361 0.000002 -0.000003 0.000001 0.505008 -7.110124 -9.610269 22.091130 24.602929 25.948915 -0.000017 30.918303 0.000020 33.834059 15.730837 20.818654 2.240365 -5.115940 47.276432 1.630509 -4.478552 39.993800 0.547953 -2.710154 22.856521 0.000000 -0.000000 0.000001 2.389862 -18.008863 6.898369 4.637203 -8.634136 -0.225399 0.125391 -16.757466 -3.767203 0.000000 -0.000001 0.000001 2.426049 -5.280693 49.325703 1.491980 -4.308518 38.185648 0.376071 -2.259866 18.893888 -0.000001 -0.000000 0.000001 3.103873 -5.792181 56.342548 1.775819 -4.645736 41.820552 0.565007 -2.750191 23.214426 0.000000 0.000001 -0.000001 5.555843 -6.807961 78.412320 1.523734 -4.348470 38.606408 0.378184 -2.266044 18.947568 0.000001 0.000003 0.000000 -23.599813 23.962906 -11.732621 39.976749 1.687298 -0.217609 -18.205041 -3.275489 16.149342 -0.262955 -0.000001 -0.000002 -0.000000 0.000000 -0.000000 -16.800706 -5.077852 -8.702341 67.404671 -9.768989 2.151281 26.841242 -1.692493 17.027025 -22.850543 -2.222599 9.823349 0.000003 0.000001 0.000000 
3.690628 185.397675 -73.352524 4.218525 -25.229623 3.305637 5.731721 -0.562591 -1.710141 3.301053 -0.084757 0.943006 3.302162 -0.071628 0.938629 1.552388 4.634572 -1.522015 -10.816535 23.981773 -4.759887 0.000000 -0.000000 0.000000 0.000000 -0.000000 0.000000 0.000000 -0.000000 0.000000 0.974783 -3.937455 0.971452 -27.087414 -52.295979 -69.659528 -0.000152 -99.192016 -0.000133 3.450299 -7.071960 -8.384021 0.473496 2.513697 -21.332313 0.175836 1.549230 -12.950665 0.149684 1.430759 -11.944558 0.000002 0.000001 -0.000002 0.878076 12.629895 -5.171246 3.939037 7.948699 0.746810 1.374073 26.415417 4.686969 0.000001 -0.000002 0.000001 0.371250 2.234520 -18.864419 0.129240 1.330476 -11.096041 0.146358 1.414957 -11.810735 0.000001 -0.000000 0.000000 0.859584 3.336470 -28.886765 0.212468 1.700614 -14.242199 0.153449 1.448333 -12.093567 -0.000002 0.000000 0.000004 4.632231 7.676586 -42.808166 0.115214 -2.764060 -11.267244 0.138868 1.378626 -11.503149 0.000004 0.000000 0.000000 0.346138 -4.998012 -9.978892 28.670518 24.136133 24.418283 -0.000005 32.583223 -0.000016 25.906156 17.375108 27.189754 2.330222 -5.197161 48.276071 1.630888 -4.479003 39.998793 0.544449 -2.701841 22.782224 0.000002 0.000001 -0.000001 2.389870 -18.008852 6.898379 4.637202 -8.634133 -0.225397 0.125396 -16.757463 -3.767203 0.000001 -0.000001 0.000000 2.610079 -5.432756 51.296650 1.475780 -4.287892 37.969612 0.371339 -2.246013 18.773466 0.000005 -0.000002 0.000002 3.129079 -5.808788 56.591853 1.764197 -4.632760 41.676889 0.561467 -2.741943 23.140749 -0.000002 0.000001 -0.000003 5.504230 -6.797232 77.976547 1.505436 -4.325542 38.364558 0.377022 -2.262639 18.917821 0.000000 0.000001 0.000001 -26.315445 25.825229 -8.953645 37.416746 8.380247 0.476501 -17.272275 -2.174800 13.700951 -0.260455 -0.000001 0.000002 -0.000000 0.000000 0.000000 -15.223209 -7.861713 -9.170236 61.034167 -9.996753 3.514965 26.753434 -9.309369 19.937853 -38.289948 -3.859019 16.980487 -0.000001 -0.000000 -0.000000 
5.176211 187.648102 -73.123650 5.830219 -39.335408 3.405692 4.572626 0.129853 -1.885211 3.097351 0.010038 0.591866 3.097715 0.021390 0.591382 1.595588 6.807854 -1.329708 -9.035594 35.446933 -5.373676 -0.000000 0.000000 -0.000000 -0.000000 0.000000 -0.000000 -0.000000 0.000000 -0.000000 0.854737 -3.420979 1.873970 -20.027412 -47.595921 -67.451588 -0.000044 -100.804030 -0.000061 3.918060 -3.511535 -9.157412 0.470682 2.506437 -21.267664 0.175569 1.548026 -12.940327 0.152969 1.446179 -12.075290 0.000002 0.000000 0.000001 0.878089 12.629891 -5.171255 3.939032 7.948699 0.746809 1.374075 26.415415 4.686972 -0.000001 0.000002 -0.000001 0.371196 2.234361 -18.863024 0.126314 1.315376 -10.968480 0.150035 1.432326 -11.957821 0.000000 -0.000001 -0.000002 0.851205 3.321273 -28.742488 0.215660 1.713059 -14.348844 0.157738 1.468271 -12.262670 0.000002 -0.000000 -0.000004 4.597668 7.666431 -42.549179 0.122262 -2.729274 -11.560890 0.143704 1.402241 -11.702866 -0.000004 0.000002 0.000003 0.191260 -3.154411 -9.938961 34.463099 25.069202 23.392305 0.000000 34.539211 0.000005 14.557242 17.525903 34.491711 2.574474 -5.404156 50.919624 1.683067 -4.540279 40.662278 0.545113 -2.703388 22.796289 0.000001 0.000004 -0.000002 2.389874 -18.008832 6.898405 4.637204 -8.634132 -0.225400 0.125389 -16.757463 -3.767205 -0.000002 -0.000002 0.000002 3.029483 -5.742189 55.602186 1.509353 -4.330435 38.416331 0.364935 -2.227101 18.609426 0.000001 0.000002 -0.000000 3.290640 -5.911646 58.174237 1.782147 -4.652782 41.898740 0.559594 -2.737590 23.101692 0.000000 -0.000002 -0.000001 5.611049 -6.818952 78.877565 1.480680 -4.294159 38.035117 0.374258 -2.254561 18.847789 0.000001 0.000000 0.000003 -29.102985 25.993750 -6.500581 34.116829 10.002587 1.989861 -14.770428 3.893733 12.691108 -0.257952 -0.000002 0.000003 -0.000000 -0.000000 -0.000000 -14.798194 -11.067948 -9.669417 54.038493 -10.359231 3.139093 24.137836 -18.223906 20.362180 -43.454299 -2.870344 14.194251 0.000000 0.000000 -0.000000 
